<svg xmlns="http://www.w3.org/2000/svg" width="512" height="512" viewBox="0 0 512 512">
  <g id="appIcon" transform="translate(-754 -335)">
    <rect id="bcakground" width="512" height="512" transform="translate(754 335)" fill="none"/>
    <g id="letter" transform="translate(888.603 433.365)">
      <path id="t" d="M110.9,315.884a98.949,98.949,0,0,1-30.664-4.38,66.353,66.353,0,0,1-12.407-5.476,58.013,58.013,0,0,1-10.457-7.666,54.746,54.746,0,0,1-8.3-9.676,57.32,57.32,0,0,1-5.926-11.507c-3.146-8.242-4.741-17.832-4.741-28.5V119.537H0V61.449H38.406V8.64C61.03,4.817,83.642,1.91,105.616,0V61.449h62.409v58.088H105.616V236.193a24.422,24.422,0,0,0,1.5,8.881,16.556,16.556,0,0,0,4.5,6.481,19.71,19.71,0,0,0,7.261,3.96,33.231,33.231,0,0,0,9.782,1.32,76.9,76.9,0,0,0,17.972-2.358c-.034.814-.052,1.655-.052,2.5a59.607,59.607,0,0,0,1.608,13.774,59.122,59.122,0,0,0,11.75,23.728,59.754,59.754,0,0,0,9.4,9.213,151.978,151.978,0,0,1-28.815,9.143A145.4,145.4,0,0,1,110.9,315.884Z" fill="#212738" stroke="rgba(0,0,0,0)" stroke-miterlimit="10" stroke-width="1"/>
      <ellipse id="dot" cx="37.636" cy="36.939" rx="37.636" ry="36.939" transform="translate(168.154 220.39)" fill="#0496ff"/>
    </g>
  </g>
</svg>
