<svg xmlns="http://www.w3.org/2000/svg"
     width="1446.639"
     height="307.069"
     viewBox="0 0 1446.639 307.069">
    <path d="M92.724,264.12a82.733,82.733,0,0,1-25.64-3.663,51.45,51.45,0,0,1-19.117-10.988,46.377,46.377,0,0,1-11.892-17.712,66.848,66.848,0,0,1-3.964-23.833V99.948H0V51.378H32.112V7.225C51.028,4.028,69.935,1.6,88.308,0V51.378H140.49V99.948H88.308v97.54c0,5.594,1.688,9.916,5.018,12.844s8.124,4.416,14.25,4.416c7.458,0,16.1-1.756,25.689-5.218l12.444,42.547a129.014,129.014,0,0,1-26.091,9.032A121.529,121.529,0,0,1,92.724,264.12ZM883.88,258.1h0l-56.6,0V129.652a45.894,45.894,0,0,0-2.007-14.05,30.76,30.76,0,0,0-6.021-10.837,26.1,26.1,0,0,0-9.333-6.925,29.847,29.847,0,0,0-11.942-2.308,38.98,38.98,0,0,0-14.4,2.76,48.906,48.906,0,0,0-13.5,8.279,65.384,65.384,0,0,0-11.792,13.3,94.167,94.167,0,0,0-9.282,17.812V258.1h-56.6V51.378H747.8V83.49a97.618,97.618,0,0,1,13.322-16.507,75.487,75.487,0,0,1,15.479-11.791,70.357,70.357,0,0,1,17.637-7.075,81.11,81.11,0,0,1,19.794-2.358,83.244,83.244,0,0,1,21.926,2.76A63.646,63.646,0,0,1,854.376,56.8a59.937,59.937,0,0,1,14.4,13.4,69.1,69.1,0,0,1,9.885,18.114,118.511,118.511,0,0,1,14.9-19.117A79.665,79.665,0,0,1,910.171,56a72.646,72.646,0,0,1,18.716-7.677,85.6,85.6,0,0,1,21.223-2.559c11.054,0,21.031,1.671,29.654,4.968a59.483,59.483,0,0,1,22.328,14.9,64.471,64.471,0,0,1,14,23.733,98.466,98.466,0,0,1,4.666,31.46v31.9a83.884,83.884,0,0,0-27.956,29.6,83.454,83.454,0,0,0-2.833,75.774l-25.808,0V129.652a48.235,48.235,0,0,0-1.956-14.3,29.912,29.912,0,0,0-5.87-10.788,25.267,25.267,0,0,0-9.182-6.774,30.056,30.056,0,0,0-11.892-2.257A38.6,38.6,0,0,0,919.4,98.944a51.365,51.365,0,0,0-14.651,10.235,76.05,76.05,0,0,0-12.242,15.555A93.334,93.334,0,0,0,883.88,144.1v114Zm-446.357,0H375.709L333.161,107.976,288.606,258.1H227.994L167.785,51.378h57.8l36.93,136.877L302.254,52.583l63.822-5.218,42.95,144.9L446.757,51.378h53.786L437.524,258.1Zm152.533,0h0v0l-56.593,0V51.378h56.6V85.1h3.211c7.722-13.582,15.488-23.711,23.079-30.106a39.392,39.392,0,0,1,12.9-7.224,49.643,49.643,0,0,1,15.8-2.409,38.742,38.742,0,0,1,12.043,1.606l-6.02,61.013c-6.919-1.864-12.591-2.811-16.86-2.811a35.233,35.233,0,0,0-16.257,3.613,43.449,43.449,0,0,0-12.443,9.633c-3.594,4-8.794,10.208-15.453,18.466Z"
          transform="translate(0 34.922)"
          fill="#001e3d" />
    <path d="M258.5,299.041a122.956,122.956,0,0,1-29.452-3.411,100.422,100.422,0,0,1-25.74-10.235,95.365,95.365,0,0,1-21.224-16.407,98.152,98.152,0,0,1-15.906-21.926,107.731,107.731,0,0,1-9.934-26.644,135.821,135.821,0,0,1-3.311-30.556,137.829,137.829,0,0,1,3.261-30.557,108.749,108.749,0,0,1,9.784-26.643,96.56,96.56,0,0,1,15.755-21.926,94.317,94.317,0,0,1,21.174-16.407,100.418,100.418,0,0,1,25.739-10.236A122.937,122.937,0,0,1,258.1,80.68a124.688,124.688,0,0,1,29.453,3.362,101.313,101.313,0,0,1,25.74,10.086,93.533,93.533,0,0,1,21.173,16.206A95.344,95.344,0,0,1,350.22,132.06,107.4,107.4,0,0,1,360,158.451a134.849,134.849,0,0,1,3.261,30.205A139.176,139.176,0,0,1,360,219.313a112.013,112.013,0,0,1-9.784,26.944,98.013,98.013,0,0,1-15.755,22.278,94.363,94.363,0,0,1-21.173,16.659,99.855,99.855,0,0,1-25.64,10.385A119.185,119.185,0,0,1,258.5,299.041Zm-.4-169.389a45.691,45.691,0,0,0-19.518,4.064,42.751,42.751,0,0,0-15.2,12.192,55.678,55.678,0,0,0-9.784,19.016,85.838,85.838,0,0,0-3.261,24.535,86.885,86.885,0,0,0,3.261,24.636,57.775,57.775,0,0,0,9.784,19.317,42.951,42.951,0,0,0,15.2,12.493,47.821,47.821,0,0,0,39.036,0,42.94,42.94,0,0,0,15.2-12.493A57.785,57.785,0,0,0,302.6,214.1a86.869,86.869,0,0,0,3.262-24.636,85.82,85.82,0,0,0-3.262-24.535,55.688,55.688,0,0,0-9.785-19.016,42.738,42.738,0,0,0-15.2-12.192A45.693,45.693,0,0,0,258.1,129.652ZM129.652,293.02H57.682A82.574,82.574,0,0,0,65.428,257.9a82.661,82.661,0,0,0-7.247-34.03A83.374,83.374,0,0,0,49.712,209.2a83.921,83.921,0,0,0-11.176-12.589V134.869H0V86.3H95.132v158.15h34.52V293.02ZM95.934,52.182H31.31V0H95.934V52.182Z"
          transform="translate(1083.373 0)"
          fill="#001e3d" />
    <circle cx="50.175"
            cy="50.175"
            r="50.175"
            transform="translate(1014.333 206.72)"
            fill="#0496ff" />
</svg>