<svg xmlns="http://www.w3.org/2000/svg" width="512" height="512" viewBox="0 0 512 512">
  <g id="siteIcon" transform="translate(-754 -335)">
    <rect id="bcakground" width="512" height="512" transform="translate(754 335)" fill="none"/>
    <g id="letter" transform="translate(853.594 387.935)">
      <path id="t" d="M142.794,406.743c-14.767,0-28.051-1.9-39.484-5.64a85.439,85.439,0,0,1-15.976-7.051,74.7,74.7,0,0,1-13.464-9.872,70.494,70.494,0,0,1-10.683-12.459,73.806,73.806,0,0,1-7.63-14.816c-4.05-10.613-6.1-22.962-6.1-36.7V153.919H0v-74.8H49.452v-68C78.584,6.2,107.7,2.46,135.994,0V79.124h80.36v74.8h-80.36V304.13a31.446,31.446,0,0,0,1.931,11.436,21.318,21.318,0,0,0,5.795,8.346,25.379,25.379,0,0,0,9.35,5.1,42.79,42.79,0,0,0,12.6,1.7,99.02,99.02,0,0,0,23.142-3.036c-.043,1.048-.067,2.131-.067,3.218a76.751,76.751,0,0,0,2.07,17.736,76.127,76.127,0,0,0,15.13,30.553,76.941,76.941,0,0,0,12.105,11.863,195.691,195.691,0,0,1-37.1,11.773A187.214,187.214,0,0,1,142.794,406.743Z" fill="#212738" stroke="rgba(0,0,0,0)" stroke-miterlimit="10" stroke-width="1"/>
      <ellipse id="dot" cx="48.462" cy="47.564" rx="48.462" ry="47.564" transform="translate(216.52 283.782)" fill="#0496ff"/>
    </g>
  </g>
</svg>
