<svg xmlns="http://www.w3.org/2000/svg"
     xmlns:xlink="http://www.w3.org/1999/xlink"
     width="512"
     height="512"
     viewBox="0 0 512 512">
    <defs>
        <clipPath id="clip-path">
            <path id="background"
                  d="M256,0C397.385,0,512,114.615,512,256S397.385,512,256,512,0,397.385,0,256,114.615,0,256,0Z"
                  transform="translate(754 335)"
                  fill="#001e3d" />
        </clipPath>
    </defs>
    <g id="siteIcon"
       transform="translate(-754 -335)">
        <rect id="frame"
              width="512"
              height="512"
              transform="translate(754 335)"
              fill="none" />
        <path id="background-4"
              data-name="background"
              d="M256,0C397.385,0,512,114.615,512,256S397.385,512,256,512,0,397.385,0,256,114.615,0,256,0Z"
              transform="translate(754 335)"
              fill="#001e3d" />
        <g id="waves">
            <g id="wave"
               clip-path="url(#clip-path)">
                <path id="wave-2"
                      data-name="wave"
                      d="M0,145.3l94.979,31.66c94.979,31.66,284.936,94.979,474.893,63.319s379.914-158.3,569.871-211.129C1329.7-22.9,1519.657-3.109,1709.615,71.489c189.957,73.806,379.914,200.444,569.871,210.932,189.957,11.279,379.914-95.572,474.893-147.613l94.979-52.832v316.6H0Z"
                      transform="translate(-555.679 501)"
                      fill="#70b8ff" />
            </g>
            <g id="wave-3"
               data-name="wave"
               clip-path="url(#clip-path)">
                <path id="wave-4"
                      data-name="wave"
                      d="M0,145.3l94.979,31.66c94.979,31.66,284.936,94.979,474.893,63.319s379.914-158.3,569.871-211.129C1329.7-22.9,1519.657-3.109,1709.615,71.489c189.957,73.806,379.914,200.444,569.871,210.932,189.957,11.279,379.914-95.572,474.893-147.613l94.979-52.832v316.6H0Z"
                      transform="translate(-518.679 541)"
                      fill="#47a3ff" />
            </g>
            <g id="wave-5"
               data-name="wave"
               clip-path="url(#clip-path)">
                <path id="wave-6"
                      data-name="wave"
                      d="M0,145.3l94.979,31.66c94.979,31.66,284.936,94.979,474.893,63.319s379.914-158.3,569.871-211.129C1329.7-22.9,1519.657-3.109,1709.615,71.489c189.957,73.806,379.914,200.444,569.871,210.932,189.957,11.279,379.914-95.572,474.893-147.613l94.979-52.832v316.6H0Z"
                      transform="translate(-497.679 591)"
                      fill="#09f" />
            </g>
        </g>
        <g id="letter"
           transform="translate(914.58 467.074)">
            <path id="t"
                  d="M87.227,248.464a77.831,77.831,0,0,1-24.12-3.445,52.192,52.192,0,0,1-9.759-4.307,45.633,45.633,0,0,1-8.225-6.03,43.062,43.062,0,0,1-6.526-7.611,45.086,45.086,0,0,1-4.661-9.051,62.89,62.89,0,0,1-3.729-22.42V94.024H0V48.334H30.209V6.8C48,3.789,65.79,1.5,83.074,0V48.334h49.089v45.69H83.074v91.758a19.209,19.209,0,0,0,1.18,6.986,13.022,13.022,0,0,0,3.54,5.1,15.5,15.5,0,0,0,5.711,3.115,26.138,26.138,0,0,0,7.694,1.038,60.488,60.488,0,0,0,14.136-1.854c-.027.64-.041,1.3-.041,1.966a46.885,46.885,0,0,0,1.265,10.835,46.5,46.5,0,0,0,9.243,18.664,47,47,0,0,0,7.395,7.247,119.541,119.541,0,0,1-22.665,7.192A114.363,114.363,0,0,1,87.227,248.464Z"
                  fill="#fff" />
            <ellipse id="dot"
                     cx="29.603"
                     cy="29.055"
                     rx="29.603"
                     ry="29.055"
                     transform="translate(132.264 173.352)"
                     fill="#fff"
                     opacity="0.5" />
        </g>
    </g>
</svg>
