<svg class="lg:mb-20 text-white dark:text-slate-800"
     xmlns="http://www.w3.org/2000/svg"
     viewBox="0 0 1440 320">
    <path fill="currentColor"
          fill-opacity="1"
          d="M0,192L48,186.7C96,181,192,171,288,149.3C384,128,480,96,576,85.3C672,75,768,85,864,106.7C960,128,1056,160,1152,154.7C1248,149,1344,107,1392,85.3L1440,64L1440,320L1392,320C1344,320,1248,320,1152,320C1056,320,960,320,864,320C768,320,672,320,576,320C480,320,384,320,288,320C192,320,96,320,48,320L0,320Z" />
</svg>