<svg class="w-24 logo"
    xmlns="http://www.w3.org/2000/svg" viewBox="0 0 721.8 153.5">
    <g transform="translate(-598.1 -452.5)">
        <path class="typo" d="M-203.8-68.4a41.222,41.222,0,0,1-12.775-1.825A25.635,25.635,0,0,1-226.1-75.7a23.108,23.108,0,0,1-5.925-8.825A33.308,33.308,0,0,1-234-96.4v-53.8h-16v-24.2h16v-22c9.425-1.593,18.845-2.8,28-3.6v25.6h26v24.2h-26v48.6a8.1,8.1,0,0,0,2.5,6.4c1.659,1.46,4.048,2.2,7.1,2.2a38.472,38.472,0,0,0,12.8-2.6l6.2,21.2a64.281,64.281,0,0,1-13,4.5A60.553,60.553,0,0,1-203.8-68.4Zm394.2-3H162.2v-64a22.867,22.867,0,0,0-1-7,15.328,15.328,0,0,0-3-5.4,13,13,0,0,0-4.65-3.45,14.871,14.871,0,0,0-5.95-1.15,19.422,19.422,0,0,0-7.175,1.375A24.366,24.366,0,0,0,133.7-146.9a32.575,32.575,0,0,0-5.875,6.625A46.919,46.919,0,0,0,123.2-131.4v60H95v-103h27.6v16a48.64,48.64,0,0,1,6.638-8.225,37.609,37.609,0,0,1,7.713-5.875,35.057,35.057,0,0,1,8.788-3.525A40.413,40.413,0,0,1,155.6-177.2a41.477,41.477,0,0,1,10.925,1.375A31.712,31.712,0,0,1,175.7-171.7a29.865,29.865,0,0,1,7.175,6.675A34.427,34.427,0,0,1,187.8-156a59.047,59.047,0,0,1,7.425-9.525A39.7,39.7,0,0,1,203.5-172.1a36.2,36.2,0,0,1,9.325-3.825A42.649,42.649,0,0,1,223.4-177.2a41.361,41.361,0,0,1,14.775,2.475A29.638,29.638,0,0,1,249.3-167.3a32.124,32.124,0,0,1,6.975,11.825A49.062,49.062,0,0,1,258.6-139.8v15.894a41.8,41.8,0,0,0-13.929,14.749,41.278,41.278,0,0,0-3.894,9.616A41.635,41.635,0,0,0,239.4-88.9a41.145,41.145,0,0,0,3.859,17.5H230.4v-64a24.032,24.032,0,0,0-.975-7.125A14.9,14.9,0,0,0,226.5-147.9a12.59,12.59,0,0,0-4.575-3.375A14.976,14.976,0,0,0,216-152.4a19.231,19.231,0,0,0-7.9,1.7,25.593,25.593,0,0,0-7.3,5.1,37.894,37.894,0,0,0-6.1,7.75,46.506,46.506,0,0,0-4.3,9.65v56.8ZM-32-71.4H-62.8L-84-146.2l-22.2,74.8h-30.2l-30-103h28.8l18.4,68.2,19.8-67.6,31.8-2.6,21.4,72.2,18.8-70.2H-.6L-32-71.4Zm76,0H15.8v-103H44v16.8h1.6c3.848-6.767,7.717-11.814,11.5-15a19.628,19.628,0,0,1,6.425-3.6,24.735,24.735,0,0,1,7.875-1.2,19.3,19.3,0,0,1,6,.8l-3,30.4a34.148,34.148,0,0,0-8.4-1.4,17.555,17.555,0,0,0-8.1,1.8,21.648,21.648,0,0,0-6.2,4.8c-1.791,1.991-4.381,5.086-7.7,9.2Z" transform="translate(848.6 670.4)" fill="currentColor" stroke="rgba(0,0,0,0)" stroke-miterlimit="10" stroke-width="1"/>
        <path class="typo" d="M-70.8-51a61.264,61.264,0,0,1-14.674-1.7A50.036,50.036,0,0,1-98.3-57.8a47.516,47.516,0,0,1-10.575-8.175A48.9,48.9,0,0,1-116.8-76.9a53.678,53.678,0,0,1-4.95-13.275A67.674,67.674,0,0,1-123.4-105.4a68.674,68.674,0,0,1,1.625-15.225A54.185,54.185,0,0,1-116.9-133.9a48.112,48.112,0,0,1,7.85-10.925A47,47,0,0,1-98.5-153a50.034,50.034,0,0,1,12.825-5.1A61.255,61.255,0,0,1-71-159.8a62.127,62.127,0,0,1,14.675,1.675A50.48,50.48,0,0,1-43.5-153.1a46.6,46.6,0,0,1,10.549,8.075A47.5,47.5,0,0,1-25.1-134.2a53.513,53.513,0,0,1,4.875,13.15A67.191,67.191,0,0,1-18.6-106a69.347,69.347,0,0,1-1.625,15.275A55.813,55.813,0,0,1-25.1-77.3a48.837,48.837,0,0,1-7.85,11.1A47.017,47.017,0,0,1-43.5-57.9a49.753,49.753,0,0,1-12.775,5.175A59.385,59.385,0,0,1-70.8-51Zm-.2-84.4a22.766,22.766,0,0,0-9.725,2.025A21.3,21.3,0,0,0-88.3-127.3a27.742,27.742,0,0,0-4.875,9.475A42.769,42.769,0,0,0-94.8-105.6a43.291,43.291,0,0,0,1.625,12.275A28.787,28.787,0,0,0-88.3-83.7a21.4,21.4,0,0,0,7.575,6.225A22.3,22.3,0,0,0-71-75.4a22.3,22.3,0,0,0,9.725-2.075A21.4,21.4,0,0,0-53.7-83.7a28.792,28.792,0,0,0,4.875-9.625A43.283,43.283,0,0,0-47.2-105.6a42.761,42.761,0,0,0-1.625-12.225A27.747,27.747,0,0,0-53.7-127.3a21.3,21.3,0,0,0-7.575-6.075A22.767,22.767,0,0,0-71-135.4ZM-135-54h-35.86A41.143,41.143,0,0,0-167-71.5a41.186,41.186,0,0,0-3.611-16.956,41.543,41.543,0,0,0-4.22-7.311,41.815,41.815,0,0,0-5.569-6.273V-132.8h-19.2V-157h47.4v78.8H-135V-54Zm-16.8-120H-184v-26h32.2v26Z" transform="translate(1338 653)" fill="currentColor" stroke="rgba(0,0,0,0)" stroke-miterlimit="10" stroke-width="1"/>
        <circle class="dot" cx="25" cy="25" r="25" transform="translate(1104 556)" fill="currentColor"/>
    </g>
</svg>